<mxfile host="app.diagrams.net" modified="2023-07-26T15:33:39.085Z" agent="Mozilla/5.0 (Windows NT 10.0; Win64; x64; rv:109.0) Gecko/20100101 Firefox/115.0" etag="Sc6wTV9NawO0EzIovTkZ" version="21.6.5" type="device">
  <diagram name="Page-1" id="UEHAVwUpDQmihoC4NCPU">
    <mxGraphModel dx="949" dy="464" grid="1" gridSize="10" guides="1" tooltips="1" connect="1" arrows="1" fold="1" page="1" pageScale="1" pageWidth="850" pageHeight="1100" background="#ffffff" math="0" shadow="0">
      <root>
        <mxCell id="0" />
        <mxCell id="1" parent="0" />
        <mxCell id="rFKt25T5PVaV-o2PCqys-2" value="" style="shape=mxgraph.cisco.storage.relational_database;sketch=0;html=1;pointerEvents=1;dashed=0;fillColor=#036897;strokeColor=#ffffff;strokeWidth=2;verticalLabelPosition=bottom;verticalAlign=top;align=center;outlineConnect=0;" vertex="1" parent="1">
          <mxGeometry x="159" y="61.879999999999995" width="66" height="53" as="geometry" />
        </mxCell>
        <mxCell id="rFKt25T5PVaV-o2PCqys-7" value="Database &lt;br&gt;&lt;div&gt;(Remote or&amp;nbsp;&lt;/div&gt;&lt;div&gt;Local Machine)&lt;br&gt;&lt;/div&gt;" style="text;strokeColor=none;align=center;fillColor=none;html=1;verticalAlign=middle;whiteSpace=wrap;rounded=0;fontStyle=1" vertex="1" parent="1">
          <mxGeometry x="100" y="124.88" width="184" height="30" as="geometry" />
        </mxCell>
        <mxCell id="rFKt25T5PVaV-o2PCqys-9" value="" style="group" vertex="1" connectable="0" parent="1">
          <mxGeometry x="153" y="194.63" width="66" height="97" as="geometry" />
        </mxCell>
        <mxCell id="rFKt25T5PVaV-o2PCqys-6" value="Server/API" style="text;strokeColor=none;align=center;fillColor=none;html=1;verticalAlign=middle;whiteSpace=wrap;rounded=0;fontStyle=1" vertex="1" parent="rFKt25T5PVaV-o2PCqys-9">
          <mxGeometry x="3" y="67" width="60" height="30" as="geometry" />
        </mxCell>
        <mxCell id="rFKt25T5PVaV-o2PCqys-8" value="" style="shape=mxgraph.cisco.servers.www_server;sketch=0;html=1;pointerEvents=1;dashed=0;fillColor=#036897;strokeColor=#ffffff;strokeWidth=2;verticalLabelPosition=bottom;verticalAlign=top;align=center;outlineConnect=0;" vertex="1" parent="rFKt25T5PVaV-o2PCqys-9">
          <mxGeometry width="66" height="67" as="geometry" />
        </mxCell>
        <mxCell id="rFKt25T5PVaV-o2PCqys-13" value="" style="shape=mxgraph.cisco.storage.relational_database;sketch=0;html=1;pointerEvents=1;dashed=0;fillColor=#036897;strokeColor=#ffffff;strokeWidth=2;verticalLabelPosition=bottom;verticalAlign=top;align=center;outlineConnect=0;" vertex="1" parent="1">
          <mxGeometry x="376" y="62.75" width="66" height="53" as="geometry" />
        </mxCell>
        <mxCell id="rFKt25T5PVaV-o2PCqys-19" value="Database &lt;br&gt;&lt;div&gt;(Remote or&amp;nbsp;&lt;/div&gt;&lt;div&gt;Local Machine)&lt;br&gt;&lt;/div&gt;" style="text;strokeColor=none;align=center;fillColor=none;html=1;verticalAlign=middle;whiteSpace=wrap;rounded=0;fontStyle=1" vertex="1" parent="1">
          <mxGeometry x="320" y="122.75" width="184" height="30" as="geometry" />
        </mxCell>
        <mxCell id="rFKt25T5PVaV-o2PCqys-20" value="" style="whiteSpace=wrap;html=1;aspect=fixed;fillColor=none;strokeWidth=3;" vertex="1" parent="1">
          <mxGeometry x="362" y="180" width="100" height="100" as="geometry" />
        </mxCell>
        <mxCell id="rFKt25T5PVaV-o2PCqys-21" value="Server/API in &lt;br&gt;Docker Container" style="text;strokeColor=none;align=center;fillColor=none;html=1;verticalAlign=middle;whiteSpace=wrap;rounded=0;fontStyle=1" vertex="1" parent="1">
          <mxGeometry x="352" y="280" width="120" height="30" as="geometry" />
        </mxCell>
        <mxCell id="rFKt25T5PVaV-o2PCqys-17" value="" style="shape=mxgraph.cisco.servers.www_server;sketch=0;html=1;pointerEvents=1;dashed=0;fillColor=#036897;strokeColor=#ffffff;strokeWidth=2;verticalLabelPosition=bottom;verticalAlign=top;align=center;outlineConnect=0;" vertex="1" parent="1">
          <mxGeometry x="376" y="196.5" width="66" height="67" as="geometry" />
        </mxCell>
        <mxCell id="rFKt25T5PVaV-o2PCqys-28" value="" style="whiteSpace=wrap;html=1;aspect=fixed;fillColor=none;strokeWidth=3;" vertex="1" parent="1">
          <mxGeometry x="618" y="180" width="100" height="100" as="geometry" />
        </mxCell>
        <mxCell id="rFKt25T5PVaV-o2PCqys-29" value="Server/API in &lt;br&gt;Docker Container" style="text;strokeColor=none;align=center;fillColor=none;html=1;verticalAlign=middle;whiteSpace=wrap;rounded=0;fontStyle=1" vertex="1" parent="1">
          <mxGeometry x="608" y="280" width="120" height="30" as="geometry" />
        </mxCell>
        <mxCell id="rFKt25T5PVaV-o2PCqys-30" value="" style="shape=mxgraph.cisco.servers.www_server;sketch=0;html=1;pointerEvents=1;dashed=0;fillColor=#036897;strokeColor=#ffffff;strokeWidth=2;verticalLabelPosition=bottom;verticalAlign=top;align=center;outlineConnect=0;" vertex="1" parent="1">
          <mxGeometry x="632" y="196.5" width="66" height="67" as="geometry" />
        </mxCell>
        <mxCell id="rFKt25T5PVaV-o2PCqys-36" value="" style="group" vertex="1" connectable="0" parent="1">
          <mxGeometry x="619" y="50" width="109" height="115.5" as="geometry" />
        </mxCell>
        <mxCell id="rFKt25T5PVaV-o2PCqys-26" value="" style="shape=mxgraph.cisco.storage.relational_database;sketch=0;html=1;pointerEvents=1;dashed=0;fillColor=#036897;strokeColor=#ffffff;strokeWidth=2;verticalLabelPosition=bottom;verticalAlign=top;align=center;outlineConnect=0;" vertex="1" parent="rFKt25T5PVaV-o2PCqys-36">
          <mxGeometry x="14" y="16.25" width="66" height="53" as="geometry" />
        </mxCell>
        <mxCell id="rFKt25T5PVaV-o2PCqys-31" value="" style="whiteSpace=wrap;html=1;aspect=fixed;fillColor=none;strokeWidth=3;" vertex="1" parent="rFKt25T5PVaV-o2PCqys-36">
          <mxGeometry x="5" width="85.5" height="85.5" as="geometry" />
        </mxCell>
        <mxCell id="rFKt25T5PVaV-o2PCqys-35" style="edgeStyle=none;rounded=0;orthogonalLoop=1;jettySize=auto;html=1;exitX=0.5;exitY=1;exitDx=0;exitDy=0;" edge="1" parent="rFKt25T5PVaV-o2PCqys-36" source="rFKt25T5PVaV-o2PCqys-31" target="rFKt25T5PVaV-o2PCqys-31">
          <mxGeometry relative="1" as="geometry" />
        </mxCell>
        <mxCell id="rFKt25T5PVaV-o2PCqys-34" value="Database in &lt;br&gt;Docker Container" style="text;strokeColor=none;align=center;fillColor=none;html=1;verticalAlign=middle;whiteSpace=wrap;rounded=0;fontStyle=1" vertex="1" parent="rFKt25T5PVaV-o2PCqys-36">
          <mxGeometry x="-11" y="85.5" width="120" height="30" as="geometry" />
        </mxCell>
        <mxCell id="rFKt25T5PVaV-o2PCqys-40" value="" style="rounded=0;whiteSpace=wrap;html=1;fillColor=none;strokeWidth=3;" vertex="1" parent="1">
          <mxGeometry x="570" y="30" width="196" height="304.5" as="geometry" />
        </mxCell>
        <mxCell id="rFKt25T5PVaV-o2PCqys-46" value="" style="edgeStyle=elbowEdgeStyle;elbow=horizontal;endArrow=classic;html=1;curved=0;rounded=0;endSize=8;startSize=8;exitX=1;exitY=0.5;exitDx=0;exitDy=0;startArrow=classic;startFill=1;" edge="1" parent="1" source="rFKt25T5PVaV-o2PCqys-28">
          <mxGeometry width="50" height="50" relative="1" as="geometry">
            <mxPoint x="738" y="140" as="sourcePoint" />
            <mxPoint x="708" y="90" as="targetPoint" />
            <Array as="points">
              <mxPoint x="738" y="160" />
            </Array>
          </mxGeometry>
        </mxCell>
        <mxCell id="rFKt25T5PVaV-o2PCqys-47" value="Single Docker Container" style="text;strokeColor=none;align=center;fillColor=none;html=1;verticalAlign=middle;whiteSpace=wrap;rounded=0;fontStyle=1;fontSize=14;" vertex="1" parent="1">
          <mxGeometry x="350" y="340" width="120" height="30" as="geometry" />
        </mxCell>
        <mxCell id="rFKt25T5PVaV-o2PCqys-48" value="Two Docker Containers" style="text;strokeColor=none;align=center;fillColor=none;html=1;verticalAlign=middle;whiteSpace=wrap;rounded=0;fontStyle=1;fontSize=14;" vertex="1" parent="1">
          <mxGeometry x="613.5" y="340" width="120" height="30" as="geometry" />
        </mxCell>
        <mxCell id="rFKt25T5PVaV-o2PCqys-49" value="Local Machine" style="text;strokeColor=none;align=center;fillColor=none;html=1;verticalAlign=middle;whiteSpace=wrap;rounded=0;fontStyle=1" vertex="1" parent="1">
          <mxGeometry x="658" y="310" width="120" height="30" as="geometry" />
        </mxCell>
        <mxCell id="rFKt25T5PVaV-o2PCqys-50" value="" style="edgeStyle=elbowEdgeStyle;elbow=horizontal;endArrow=classic;html=1;curved=0;rounded=0;endSize=8;startSize=8;exitX=1;exitY=0.5;exitDx=0;exitDy=0;startArrow=classic;startFill=1;" edge="1" parent="1">
          <mxGeometry width="50" height="50" relative="1" as="geometry">
            <mxPoint x="460" y="230" as="sourcePoint" />
            <mxPoint x="450" y="90" as="targetPoint" />
            <Array as="points">
              <mxPoint x="480" y="160" />
            </Array>
          </mxGeometry>
        </mxCell>
        <mxCell id="rFKt25T5PVaV-o2PCqys-51" value="" style="edgeStyle=elbowEdgeStyle;elbow=horizontal;endArrow=classic;html=1;curved=0;rounded=0;endSize=8;startSize=8;startArrow=classic;startFill=1;" edge="1" parent="1" source="rFKt25T5PVaV-o2PCqys-8">
          <mxGeometry width="50" height="50" relative="1" as="geometry">
            <mxPoint x="240" y="232.38" as="sourcePoint" />
            <mxPoint x="230" y="92.38" as="targetPoint" />
            <Array as="points">
              <mxPoint x="260" y="162.38" />
            </Array>
          </mxGeometry>
        </mxCell>
        <mxCell id="rFKt25T5PVaV-o2PCqys-52" value="Without Docker" style="text;strokeColor=none;align=center;fillColor=none;html=1;verticalAlign=middle;whiteSpace=wrap;rounded=0;fontStyle=1;fontSize=14;" vertex="1" parent="1">
          <mxGeometry x="142" y="340" width="100" height="30" as="geometry" />
        </mxCell>
      </root>
    </mxGraphModel>
  </diagram>
</mxfile>
